<svg width="213" height="48" viewBox="0 0 213 48" fill="none" xmlns="http://www.w3.org/2000/svg">
<g clip-path="url(#clip0_9997_33621)">
<path d="M185.392 18.2477C185.392 17.3261 185.784 16.5528 186.568 15.9066C187.352 15.2604 188.453 14.9426 189.873 14.9426C191.133 14.9426 192.383 15.1862 193.612 15.6735C194.841 16.1608 196.091 16.86 197.352 17.7816L199.947 14.1163C198.528 12.9829 197.013 12.1248 195.403 11.5422C193.792 10.949 191.97 10.6523 189.947 10.6523C188.58 10.6523 187.32 10.843 186.176 11.2244C185.021 11.6057 184.036 12.146 183.22 12.8557C182.405 13.5655 181.758 14.4129 181.282 15.3981C180.816 16.3833 180.583 17.4744 180.583 18.682C180.583 19.9638 180.784 21.0549 181.197 21.9447C181.6 22.8345 182.203 23.5973 182.977 24.2329C183.75 24.8579 184.714 25.3875 185.858 25.8112C187.002 26.235 188.316 26.6163 189.788 26.9553C191.07 27.2731 192.119 27.5697 192.924 27.8557C193.729 28.1417 194.354 28.449 194.82 28.7773C195.275 29.1057 195.593 29.4659 195.763 29.8579C195.932 30.2498 196.017 30.6947 196.017 31.1926C196.017 32.2731 195.572 33.1206 194.693 33.7562C193.814 34.3812 192.627 34.699 191.133 34.699C189.396 34.699 187.85 34.3917 186.483 33.7773C185.117 33.1629 183.771 32.2731 182.426 31.1184L179.513 34.5824C181.165 36.0761 182.966 37.1884 184.905 37.9087C186.843 38.629 188.877 38.9892 191.006 38.9892C192.447 38.9892 193.771 38.8091 194.979 38.4384C196.176 38.0676 197.214 37.5379 198.072 36.8282C198.93 36.1184 199.597 35.2498 200.085 34.2329C200.561 33.2053 200.805 32.0401 200.805 30.7265C200.805 29.5718 200.614 28.5655 200.233 27.718C199.852 26.86 199.29 26.1184 198.549 25.4723C197.818 24.8261 196.886 24.2858 195.763 23.8409C194.65 23.396 193.358 22.9829 191.917 22.6227C190.593 22.3049 189.513 22.0083 188.655 21.7223C187.797 21.4362 187.129 21.1184 186.642 20.7795C186.155 20.4405 185.826 20.0697 185.636 19.6778C185.456 19.2858 185.36 18.8091 185.36 18.2583L185.392 18.2477ZM126.716 31.9447H139.746L142.542 38.5973H147.659L135.53 10.8536H131.038L118.909 38.6079H123.867L126.706 31.9553L126.716 31.9447ZM137.977 27.6545H128.485L133.21 16.6269L137.977 27.6545ZM19.2161 30.0909L4.48093 11.0443H0V38.5973H4.79873V18.9998L19.9576 38.6079H24.0042V11.0443H19.2055V30.1015L19.2161 30.0909ZM47.2564 10.8536H42.7648L30.6356 38.6079H35.5932C40.2648 27.6333 39.8835 28.4066 44.9258 16.6375C49.4492 27.1036 50.1907 28.9151 54.2585 38.6079H59.375L47.2564 10.8536ZM74.1525 32.2307L65.8475 11.0443H60.4979L71.9491 38.7985H76.197L87.6589 11.0443H82.4258L74.1631 32.2201L74.1525 32.2307ZM116.398 20.3028C116.398 18.8833 116.155 17.6121 115.667 16.4892C115.18 15.3557 114.492 14.3918 113.581 13.5761C112.68 12.7604 111.568 12.1354 110.275 11.7011C108.972 11.2668 107.521 11.0549 105.922 11.0549H95.053V38.6079H99.8517V29.7519H105.339C106.864 29.7519 108.294 29.5506 109.64 29.1375C110.975 28.735 112.15 28.1312 113.146 27.3473C114.142 26.5634 114.926 25.5782 115.519 24.3917C116.102 23.2159 116.388 21.8494 116.388 20.3028H116.398ZM111.472 20.3981C111.472 21.9023 110.943 23.11 109.873 24.0104C108.814 24.9214 107.352 25.3769 105.508 25.3769H99.8623V15.4193H105.508C107.331 15.4193 108.771 15.8324 109.852 16.6693C110.932 17.4956 111.472 18.7456 111.472 20.3981ZM157.913 18.2477C157.913 17.3261 158.305 16.5528 159.089 15.9066C159.873 15.2604 160.975 14.9426 162.394 14.9426C163.655 14.9426 164.905 15.1862 166.133 15.6735C167.362 16.1608 168.612 16.86 169.873 17.7816L172.468 14.1163C171.049 12.9829 169.534 12.1248 167.924 11.5422C166.314 10.949 164.492 10.6523 162.468 10.6523C161.102 10.6523 159.841 10.843 158.697 11.2244C157.542 11.6057 156.557 12.146 155.742 12.8557C154.926 13.5655 154.28 14.4129 153.803 15.3981C153.337 16.3833 153.104 17.4744 153.104 18.682C153.104 19.9638 153.305 21.0549 153.718 21.9447C154.121 22.8345 154.725 23.5973 155.498 24.2329C156.271 24.8579 157.235 25.3875 158.379 25.8112C159.523 26.235 160.837 26.6163 162.309 26.9553C163.591 27.2731 164.64 27.5697 165.445 27.8557C166.25 28.1417 166.875 28.449 167.341 28.7773C167.797 29.1057 168.114 29.4659 168.284 29.8579C168.453 30.2498 168.538 30.6947 168.538 31.1926C168.538 32.2731 168.104 33.1206 167.214 33.7562C166.335 34.3812 165.148 34.699 163.655 34.699C161.917 34.699 160.371 34.3917 159.004 33.7773C157.638 33.1629 156.292 32.2731 154.947 31.1184L152.034 34.5824C153.686 36.0761 155.487 37.1884 157.426 37.9087C159.364 38.629 161.398 38.9892 163.528 38.9892C164.968 38.9892 166.292 38.8091 167.5 38.4384C168.697 38.0676 169.735 37.5379 170.593 36.8282C171.451 36.1184 172.119 35.2498 172.606 34.2329C173.083 33.2053 173.326 32.0401 173.326 30.7265C173.326 29.5718 173.136 28.5655 172.754 27.718C172.373 26.86 171.811 26.1184 171.07 25.4723C170.339 24.8261 169.407 24.2858 168.284 23.8409C167.172 23.396 165.879 22.9829 164.439 22.6227C163.114 22.3049 162.034 22.0083 161.176 21.7223C160.318 21.4362 159.65 21.1184 159.163 20.7795C158.676 20.4405 158.347 20.0697 158.157 19.6778C157.977 19.2858 157.881 18.8091 157.881 18.2583L157.913 18.2477Z" fill="#022943"/>
<path d="M204.396 9.68856H206.027V9H202.034V9.68856H203.665V14.0742H204.385V9.68856H204.396ZM211.578 10.1864V14.0742H212.288V9H211.525L209.724 11.786L207.913 9H207.14V14.0742H207.86V10.1864L209.661 12.9407H209.756L211.568 10.1864H211.578Z" fill="#022943"/>
<path d="M38.0083 38.6401H51.8748C49.5761 33.174 47.2774 27.7291 44.9469 22.2842C42.6269 27.7291 40.3282 33.1952 38.0083 38.6401Z" fill="url(#paint0_linear_9997_33621)"/>
</g>
<defs>
<linearGradient id="paint0_linear_9997_33621" x1="44.9363" y1="38.513" x2="44.9363" y2="22.6443" gradientUnits="userSpaceOnUse">
<stop stop-color="#D8A728"/>
<stop offset="0.51" stop-color="#F5DD43"/>
<stop offset="1" stop-color="#D8A728"/>
</linearGradient>
<clipPath id="clip0_9997_33621">
<rect width="212.288" height="30" fill="white" transform="translate(0 9)"/>
</clipPath>
</defs>
</svg>
